<svg xmlns="http://www.w3.org/2000/svg" viewBox="0 0 800 450" preserveAspectRatio="xMidYMid slice">
  <defs>
    <linearGradient id="bg3" x1="0%" y1="0%" x2="100%" y2="100%">
      <stop offset="0%" stop-color="#0a0a0a"/>
      <stop offset="100%" stop-color="#1c0709"/>
    </linearGradient>
    <linearGradient id="route3" x1="0%" y1="0%" x2="100%" y2="0%">
      <stop offset="0%" stop-color="#e82127" stop-opacity="0"/>
      <stop offset="20%" stop-color="#e82127" stop-opacity="0.9"/>
      <stop offset="80%" stop-color="#ff7a82" stop-opacity="0.9"/>
      <stop offset="100%" stop-color="#ff7a82" stop-opacity="0"/>
    </linearGradient>
    <pattern id="gridMap" x="0" y="0" width="40" height="40" patternUnits="userSpaceOnUse">
      <path d="M 40 0 L 0 0 0 40" fill="none" stroke="#ffffff" stroke-width="0.4" opacity="0.07"/>
    </pattern>
  </defs>
  <rect width="800" height="450" fill="url(#bg3)"/>
  <rect width="800" height="450" fill="url(#gridMap)"/>
  <g transform="translate(440,110)">
    <path d="M 0 60 Q 18 30 50 24 Q 78 18 110 28 Q 144 38 168 60 Q 192 84 200 116 Q 208 150 198 184 Q 188 220 162 240 Q 132 256 100 248 Q 64 240 38 218 Q 14 198 4 168 Q -4 134 0 60 Z" fill="#e82127" opacity="0.12" stroke="#e82127" stroke-width="1.5" stroke-linejoin="round"/>
    <path d="M 40 100 Q 60 80 90 80 Q 120 82 140 100 Q 156 122 152 152 Q 144 184 116 196 Q 84 204 60 188 Q 36 168 36 140 Q 36 118 40 100 Z" fill="none" stroke="#ffffff" stroke-width="1" opacity="0.35"/>
    <g fill="#ffffff">
      <circle cx="92" cy="120" r="5"/>
      <circle cx="124" cy="140" r="3.5" opacity="0.7"/>
      <circle cx="78" cy="166" r="3" opacity="0.7"/>
      <circle cx="142" cy="176" r="3" opacity="0.7"/>
    </g>
    <g>
      <circle cx="92" cy="120" r="10" fill="none" stroke="#e82127" stroke-width="1.5"/>
      <circle cx="92" cy="120" r="14" fill="none" stroke="#e82127" stroke-width="1" opacity="0.4"/>
    </g>
    <text x="92" y="108" font-family="Helvetica, Arial, sans-serif" font-size="11" font-weight="700" fill="#e82127" text-anchor="middle">SEOUL</text>
    <g transform="translate(108,260)">
      <circle r="6" fill="none" stroke="#ffffff" stroke-width="1" opacity="0.7"/>
      <circle r="2" fill="#ffffff"/>
    </g>
    <text x="118" y="276" font-family="Helvetica, Arial, sans-serif" font-size="10" fill="#ffffff" opacity="0.65">JEJU</text>
  </g>
  <g>
    <path d="M 40 360 C 200 300 280 200 380 240 S 540 340 740 80" fill="none" stroke="url(#route3)" stroke-width="3" stroke-linecap="round"/>
    <path d="M 40 360 C 200 300 280 200 380 240 S 540 340 740 80" fill="none" stroke="#e82127" stroke-width="1" stroke-dasharray="2 6" opacity="0.5"/>
    <g transform="translate(40,360)">
      <circle r="8" fill="#e82127"/>
      <circle r="14" fill="none" stroke="#e82127" stroke-width="1" opacity="0.5"/>
    </g>
    <g transform="translate(740,80)">
      <circle r="8" fill="#ffffff"/>
      <circle r="14" fill="none" stroke="#ffffff" stroke-width="1" opacity="0.5"/>
    </g>
  </g>
  <g font-family="Helvetica, Arial, sans-serif">
    <text x="60" y="62" font-size="12" font-weight="700" letter-spacing="4" fill="#e82127">PARTNERSHIP - OFFLINE FIRST</text>
    <line x1="60" y1="76" x2="200" y2="76" stroke="#e82127" stroke-width="1.5"/>
    <text x="60" y="140" font-size="46" font-weight="800" fill="#ffffff" letter-spacing="-0.5">Mapping Korea,</text>
    <text x="60" y="188" font-size="46" font-weight="200" font-style="italic" fill="#ffffff" letter-spacing="-0.5">offline.</text>
    <rect x="60" y="220" width="280" height="2" fill="#e82127" opacity="0.5"/>
    <g font-size="13" fill="#ffffff" opacity="0.75">
      <text x="60" y="248">OpenStreetMap Korea x TrailTrace</text>
      <text x="60" y="268" opacity="0.6">Full peninsula - free for all users</text>
    </g>
    <g transform="translate(60,300)" font-family="Helvetica, Arial, sans-serif">
      <g>
        <text x="0" y="0" font-size="28" font-weight="800" fill="#e82127">100%</text>
        <text x="0" y="18" font-size="10" letter-spacing="2" fill="#ffffff" opacity="0.55">OFFLINE</text>
      </g>
      <g transform="translate(110,0)">
        <text x="0" y="0" font-size="28" font-weight="800" fill="#ffffff">17</text>
        <text x="0" y="18" font-size="10" letter-spacing="2" fill="#ffffff" opacity="0.55">REGIONS</text>
      </g>
      <g transform="translate(200,0)">
        <text x="0" y="0" font-size="28" font-weight="800" fill="#ffffff">FREE</text>
        <text x="0" y="18" font-size="10" letter-spacing="2" fill="#ffffff" opacity="0.55">FOR ALL</text>
      </g>
    </g>
  </g>
  <g font-family="Helvetica, Arial, sans-serif" fill="#ffffff" opacity="0.5" font-size="11">
    <text x="60" y="408">10 - SEP - 2025</text>
    <text x="740" y="408" text-anchor="end">OSM - KR x TRAILTRACE</text>
  </g>
</svg>