<svg xmlns="http://www.w3.org/2000/svg" viewBox="0 0 1920 1080" preserveAspectRatio="xMidYMid slice"><defs><radialGradient id="g1" cx="20%" cy="30%" r="50%"><stop offset="0%" stop-color="#e82127" stop-opacity=".35"/><stop offset="50%" stop-color="#1a0608" stop-opacity=".2"/><stop offset="100%" stop-color="#000" stop-opacity="0"/></radialGradient><radialGradient id="g2" cx="80%" cy="70%" r="60%"><stop offset="0%" stop-color="#3a0808" stop-opacity=".5"/><stop offset="50%" stop-color="#0a0a0a" stop-opacity=".3"/><stop offset="100%" stop-color="#000" stop-opacity="0"/></radialGradient><linearGradient id="g3" x1="0%" y1="0%" x2="100%" y2="100%"><stop offset="0%" stop-color="#0d0d0d"/><stop offset="100%" stop-color="#000"/></linearGradient></defs><rect width="1920" height="1080" fill="url(#g3)"/><rect width="1920" height="1080" fill="url(#g1)"/><rect width="1920" height="1080" fill="url(#g2)"/><g opacity=".18" stroke="#e82127" stroke-width="1" fill="none"><circle cx="320" cy="240" r="180"/><circle cx="320" cy="240" r="280"/><circle cx="320" cy="240" r="380"/><circle cx="320" cy="240" r="480"/><circle cx="320" cy="240" r="580"/></g><g opacity=".14" stroke="#ff5252" stroke-width="1" fill="none"><circle cx="1620" cy="820" r="160"/><circle cx="1620" cy="820" r="260"/><circle cx="1620" cy="820" r="360"/><circle cx="1620" cy="820" r="460"/></g><g opacity=".08" fill="#fff"><circle cx="180" cy="780" r="1.5"/><circle cx="420" cy="180" r="1.5"/><circle cx="640" cy="920" r="1.5"/><circle cx="880" cy="280" r="1.5"/><circle cx="1100" cy="680" r="1.5"/><circle cx="1340" cy="180" r="1.5"/><circle cx="1500" cy="540" r="1.5"/><circle cx="1700" cy="220" r="1.5"/><circle cx="1860" cy="900" r="1.5"/></g><g opacity=".5"><path d="M0 720 L1920 540" stroke="#e82127" stroke-width=".5" stroke-dasharray="6 8"/></g><g opacity=".4"><path d="M0 460 L1920 640" stroke="#e82127" stroke-width=".5" stroke-dasharray="4 12"/></g></svg>
