<svg xmlns="http://www.w3.org/2000/svg" viewBox="0 0 800 450" preserveAspectRatio="xMidYMid meet"><defs><linearGradient id="bg2" x1="0%" y1="0%" x2="100%" y2="100%"><stop offset="0%" stop-color="#12070a"/><stop offset="100%" stop-color="#060606"/></linearGradient><linearGradient id="redBar" x1="0%" y1="0%" x2="100%" y2="0%"><stop offset="0%" stop-color="#e82127"/><stop offset="100%" stop-color="#ff5b62"/></linearGradient><pattern id="grid2" x="0" y="0" width="40" height="40" patternUnits="userSpaceOnUse"><path d="M 40 0 L 0 0 0 40" fill="none" stroke="#ffffff" stroke-width="0.5" opacity="0.06"/></pattern></defs><rect width="800" height="450" fill="url(#bg2)"/><rect width="800" height="450" fill="url(#grid2)"/><g font-family="Helvetica, Arial, sans-serif" text-anchor="middle"><rect x="380" y="38" width="40" height="3" fill="#e82127"/><text x="400" y="65" font-size="11" font-weight="700" letter-spacing="4" fill="#e82127">ENGINEERING - DESIGN SYSTEM</text><text x="400" y="115" font-size="36" font-weight="800" fill="#ffffff" letter-spacing="-0.5">Tokens. Motion. Theme.</text><text x="400" y="142" font-size="14" font-weight="300" font-style="italic" fill="#ffffff" opacity="0.7">A complete overhaul of the visual language we ship across every surface</text><g transform="translate(310,160)"><rect width="180" height="26" rx="13" fill="#e82127"/><text x="90" y="18" font-size="12" font-weight="700" letter-spacing="2" fill="#ffffff" text-anchor="middle">VERSION 2.0 - SEPTEMBER 2025</text></g></g><g transform="translate(0,215)" font-family="Helvetica, Arial, sans-serif" text-anchor="middle"><text x="400" y="0" font-size="11" font-weight="700" letter-spacing="3" fill="#ffffff" opacity="0.55">COLOR - TOKENS</text><g transform="translate(238,12)"><rect x="0" y="0" width="34" height="34" fill="#e82127"/><text x="17" y="50" font-family="monospace" font-size="8" fill="#ffffff" opacity="0.6">--red-500</text></g><g transform="translate(282,12)"><rect x="0" y="0" width="34" height="34" fill="#ffffff" opacity="0.92"/><text x="17" y="50" font-family="monospace" font-size="8" fill="#ffffff" opacity="0.6">--ink-0</text></g><g transform="translate(326,12)"><rect x="0" y="0" width="34" height="34" fill="#777777"/><text x="17" y="50" font-family="monospace" font-size="8" fill="#ffffff" opacity="0.6">--ink-7</text></g><g transform="translate(370,12)"><rect x="0" y="0" width="34" height="34" fill="#1a0608" stroke="#ffffff" stroke-width="0.5" opacity="0.6"/><text x="17" y="50" font-family="monospace" font-size="8" fill="#ffffff" opacity="0.6">--bg-2</text></g><g transform="translate(414,12)"><rect x="0" y="0" width="34" height="34" fill="#ff5b62"/><text x="17" y="50" font-family="monospace" font-size="8" fill="#ffffff" opacity="0.6">--red-400</text></g><g transform="translate(458,12)"><rect x="0" y="0" width="34" height="34" fill="#0a0a0a" stroke="#ffffff" stroke-width="0.5" opacity="0.6"/><text x="17" y="50" font-family="monospace" font-size="8" fill="#ffffff" opacity="0.6">--bg-0</text></g><g transform="translate(502,12)"><rect x="0" y="0" width="34" height="34" fill="#2a2a2a" stroke="#ffffff" stroke-width="0.5" opacity="0.6"/><text x="17" y="50" font-family="monospace" font-size="8" fill="#ffffff" opacity="0.6">--ink-9</text></g></g><g transform="translate(140,290)" font-family="Helvetica, Arial, sans-serif"><text x="260" y="0" font-size="11" font-weight="700" letter-spacing="3" fill="#ffffff" opacity="0.55" text-anchor="middle">MOTION - EASING CURVES</text><rect x="0" y="10" width="520" height="60" fill="none" stroke="#ffffff" stroke-width="0.6" opacity="0.18"/><g stroke="#ffffff" stroke-width="0.4" opacity="0.1"><line x1="20" y1="25" x2="500" y2="25"/><line x1="20" y1="40" x2="500" y2="40"/><line x1="20" y1="55" x2="500" y2="55"/></g><path d="M 20 60 Q 100 60 160 45 T 320 22 L 500 14" fill="none" stroke="#ffffff" stroke-width="1.4" opacity="0.4"/><path d="M 20 60 Q 140 35 240 30 T 500 16" fill="none" stroke="url(#redBar)" stroke-width="2.2"/><g font-family="monospace" font-size="8" fill="#ffffff" opacity="0.55"><text x="20" y="84">0ms</text><text x="500" y="84" text-anchor="end">240ms</text><text x="500" y="-2" text-anchor="end">y: 1.0</text></g><g font-family="monospace" font-size="8" fill="#e82127"><text x="260" y="100" text-anchor="middle" font-weight="700">jrui-ease-out-quint</text></g></g><g font-family="Helvetica, Arial, sans-serif" fill="#ffffff" opacity="0.55" font-size="10" text-anchor="middle"><text x="400" y="430">DOCS.JINGRUIYT.COM/DS  -  ENGINEERING NOTES  -  28 SEP 2025  -  JINGRUI YUETAO</text></g><g transform="translate(60,30)" font-family="Helvetica, Arial, sans-serif"><rect width="22" height="22" fill="none" stroke="#e82127" stroke-width="1"/><text x="11" y="16" font-size="10" font-weight="800" fill="#e82127" text-anchor="middle">02</text></g><g transform="translate(718,30)" font-family="Helvetica, Arial, sans-serif"><circle cx="11" cy="11" r="11" fill="none" stroke="#e82127" stroke-width="1.4"/><text x="11" y="15" font-size="10" font-weight="800" fill="#e82127" text-anchor="middle">v2</text></g></svg>