<svg xmlns="http://www.w3.org/2000/svg" viewBox="0 0 800 450" preserveAspectRatio="xMidYMid meet"><defs><linearGradient id="bg1" x1="0%" y1="0%" x2="100%" y2="100%"><stop offset="0%" stop-color="#0a0a0a"/><stop offset="55%" stop-color="#1a0608"/><stop offset="100%" stop-color="#2a0a0d"/></linearGradient><linearGradient id="redGlow" x1="0%" y1="0%" x2="100%" y2="0%"><stop offset="0%" stop-color="#e82127" stop-opacity="0"/><stop offset="50%" stop-color="#e82127" stop-opacity="0.55"/><stop offset="100%" stop-color="#e82127" stop-opacity="0"/></linearGradient><radialGradient id="spot" cx="50%" cy="50%" r="50%"><stop offset="0%" stop-color="#e82127" stop-opacity="0.35"/><stop offset="100%" stop-color="#e82127" stop-opacity="0"/></radialGradient><pattern id="dot1" x="0" y="0" width="22" height="22" patternUnits="userSpaceOnUse"><circle cx="2" cy="2" r="1" fill="#ffffff" opacity="0.08"/></pattern></defs><rect width="800" height="450" fill="url(#bg1)"/><rect width="800" height="450" fill="url(#dot1)"/><ellipse cx="400" cy="225" rx="320" ry="180" fill="url(#spot)"/><g stroke="#e82127" stroke-width="1" fill="none" opacity="0.18"><line x1="0" y1="430" x2="800" y2="120"/><line x1="0" y1="450" x2="800" y2="140"/></g><g font-family="Georgia, serif" fill="#ffffff" text-anchor="middle"><text x="400" y="180" font-size="120" font-weight="900" opacity="0.06">Q3</text></g><g font-family="Helvetica, Arial, sans-serif" text-anchor="middle"><rect x="380" y="40" width="40" height="3" fill="#e82127"/><text x="400" y="70" font-size="12" font-weight="700" letter-spacing="4" fill="#e82127">QUARTERLY RELEASE - OCTOBER 2025</text><text x="400" y="130" font-size="48" font-weight="800" fill="#ffffff" letter-spacing="-0.5">Six apps, one rhythm.</text><text x="400" y="160" font-size="15" font-weight="300" font-style="italic" fill="#ffffff" opacity="0.7">A unified release cadence across TrailTrace, CurioVault, MuseCatch, Cadence, HexaNote, TempoRun</text><line x1="280" y1="185" x2="520" y2="185" stroke="url(#redGlow)" stroke-width="1.5"/></g><g font-family="Helvetica, Arial, sans-serif" fill="#ffffff" font-size="11" font-weight="600" text-anchor="middle"><g transform="translate(118,210)"><rect width="80" height="26" rx="13" fill="none" stroke="#e82127" stroke-width="1.2"/><circle cx="12" cy="13" r="3" fill="#e82127"/><text x="46" y="17">TrailTrace</text></g><g transform="translate(206,210)"><rect width="78" height="26" rx="13" fill="none" stroke="#ffffff" stroke-width="1.2" opacity="0.7"/><circle cx="12" cy="13" r="3" fill="#ffffff"/><text x="46" y="17">CurioVault</text></g><g transform="translate(292,210)"><rect width="78" height="26" rx="13" fill="none" stroke="#ffffff" stroke-width="1.2" opacity="0.7"/><circle cx="12" cy="13" r="3" fill="#ffffff"/><text x="46" y="17">MuseCatch</text></g><g transform="translate(378,210)"><rect width="64" height="26" rx="13" fill="none" stroke="#ffffff" stroke-width="1.2" opacity="0.7"/><circle cx="12" cy="13" r="3" fill="#ffffff"/><text x="38" y="17">Cadence</text></g><g transform="translate(450,210)"><rect width="72" height="26" rx="13" fill="none" stroke="#ffffff" stroke-width="1.2" opacity="0.7"/><circle cx="12" cy="13" r="3" fill="#ffffff"/><text x="42" y="17">HexaNote</text></g><g transform="translate(530,210)"><rect width="78" height="26" rx="13" fill="none" stroke="#ffffff" stroke-width="1.2" opacity="0.7"/><circle cx="12" cy="13" r="3" fill="#ffffff"/><text x="46" y="17">TempoRun</text></g></g><g transform="translate(0,270)" font-family="Helvetica, Arial, sans-serif" text-anchor="middle"><text x="400" y="0" font-size="11" font-weight="700" letter-spacing="3" fill="#ffffff" opacity="0.5">SHIPPED THIS QUARTER</text><g transform="translate(260,18)"><rect width="56" height="46" fill="none" stroke="#ffffff" stroke-width="0.6" opacity="0.2"/><text x="28" y="22" font-size="20" font-weight="800" fill="#e82127">28</text><text x="28" y="38" font-size="8" fill="#ffffff" opacity="0.55">RELEASES</text></g><g transform="translate(326,18)"><rect width="56" height="46" fill="none" stroke="#ffffff" stroke-width="0.6" opacity="0.2"/><text x="28" y="22" font-size="20" font-weight="800" fill="#ffffff">6</text><text x="28" y="38" font-size="8" fill="#ffffff" opacity="0.55">APPS</text></g><g transform="translate(392,18)"><rect width="56" height="46" fill="none" stroke="#ffffff" stroke-width="0.6" opacity="0.2"/><text x="28" y="22" font-size="20" font-weight="800" fill="#ffffff">17</text><text x="28" y="38" font-size="8" fill="#ffffff" opacity="0.55">LANGUAGES</text></g><g transform="translate(458,18)"><rect width="56" height="46" fill="none" stroke="#ffffff" stroke-width="0.6" opacity="0.2"/><text x="28" y="22" font-size="20" font-weight="800" fill="#ffffff">42</text><text x="28" y="38" font-size="8" fill="#ffffff" opacity="0.55">COUNTRIES</text></g></g><g font-family="Helvetica, Arial, sans-serif" fill="#ffffff" opacity="0.55" font-size="11" text-anchor="middle"><text x="400" y="395">JINGRUI YUETAO  -  PRODUCT UPDATE  -  OCTOBER 2025  -  VOL. 03  -  NEWSROOM.JINGRUIYT.COM</text></g><g transform="translate(60,30)" font-family="Helvetica, Arial, sans-serif"><rect width="22" height="22" fill="none" stroke="#e82127" stroke-width="1"/><text x="11" y="16" font-size="10" font-weight="800" fill="#e82127" text-anchor="middle">01</text></g><g transform="translate(718,30)" font-family="Helvetica, Arial, sans-serif"><rect width="22" height="22" fill="none" stroke="#e82127" stroke-width="1"/><text x="11" y="16" font-size="10" font-weight="800" fill="#e82127" text-anchor="middle">Q3</text></g></svg>