<svg xmlns="http://www.w3.org/2000/svg" viewBox="0 0 800 450" preserveAspectRatio="xMidYMid meet"><defs><linearGradient id="bg3" x1="0%" y1="0%" x2="100%" y2="100%"><stop offset="0%" stop-color="#0a0a0a"/><stop offset="100%" stop-color="#1c0709"/></linearGradient><linearGradient id="route3" x1="0%" y1="0%" x2="100%" y2="0%"><stop offset="0%" stop-color="#e82127" stop-opacity="0"/><stop offset="20%" stop-color="#e82127" stop-opacity="0.9"/><stop offset="80%" stop-color="#ff7a82" stop-opacity="0.9"/><stop offset="100%" stop-color="#ff7a82" stop-opacity="0"/></linearGradient><pattern id="gridMap" x="0" y="0" width="40" height="40" patternUnits="userSpaceOnUse"><path d="M 40 0 L 0 0 0 40" fill="none" stroke="#ffffff" stroke-width="0.4" opacity="0.07"/></pattern></defs><rect width="800" height="450" fill="url(#bg3)"/><rect width="800" height="450" fill="url(#gridMap)"/><g font-family="Helvetica, Arial, sans-serif" text-anchor="middle"><rect x="380" y="38" width="40" height="3" fill="#e82127"/><text x="400" y="65" font-size="11" font-weight="700" letter-spacing="4" fill="#e82127">PARTNERSHIP - OFFLINE FIRST</text><text x="400" y="115" font-size="36" font-weight="800" fill="#ffffff" letter-spacing="-0.5">Mapping Korea, offline.</text><text x="400" y="142" font-size="14" font-weight="300" font-style="italic" fill="#ffffff" opacity="0.7">TrailTrace joins forces with the OpenStreetMap Korea community</text></g><g transform="translate(440,170)"><path d="M 0 60 Q 18 30 50 24 Q 78 18 110 28 Q 144 38 168 60 Q 192 84 200 116 Q 208 150 198 184 Q 188 220 162 240 Q 132 256 100 248 Q 64 240 38 218 Q 14 198 4 168 Q -4 134 0 60 Z" fill="#e82127" opacity="0.12" stroke="#e82127" stroke-width="1.5" stroke-linejoin="round"/><path d="M 40 100 Q 60 80 90 80 Q 120 82 140 100 Q 156 122 152 152 Q 144 184 116 196 Q 84 204 60 188 Q 36 168 36 140 Q 36 118 40 100 Z" fill="none" stroke="#ffffff" stroke-width="1" opacity="0.4"/><g fill="#ffffff"><circle cx="92" cy="120" r="5"/><circle cx="124" cy="140" r="3.5" opacity="0.7"/><circle cx="78" cy="166" r="3" opacity="0.7"/><circle cx="142" cy="176" r="3" opacity="0.7"/></g><g><circle cx="92" cy="120" r="10" fill="none" stroke="#e82127" stroke-width="1.5"/><circle cx="92" cy="120" r="14" fill="none" stroke="#e82127" stroke-width="1" opacity="0.4"/></g><text x="92" y="108" font-family="Helvetica, Arial, sans-serif" font-size="10" font-weight="700" fill="#e82127" text-anchor="middle">SEOUL</text><g transform="translate(108,260)"><circle r="6" fill="none" stroke="#ffffff" stroke-width="1" opacity="0.7"/><circle r="2" fill="#ffffff"/></g><text x="118" y="276" font-family="Helvetica, Arial, sans-serif" font-size="9" fill="#ffffff" opacity="0.65">JEJU</text></g><g><path d="M 80 380 C 220 340 300 240 400 270 S 560 350 740 130" fill="none" stroke="url(#route3)" stroke-width="3" stroke-linecap="round"/><path d="M 80 380 C 220 340 300 240 400 270 S 560 350 740 130" fill="none" stroke="#e82127" stroke-width="1" stroke-dasharray="2 6" opacity="0.4"/><g transform="translate(80,380)"><circle r="8" fill="#e82127"/><circle r="14" fill="none" stroke="#e82127" stroke-width="1" opacity="0.5"/></g><g transform="translate(740,130)"><circle r="8" fill="#ffffff"/><circle r="14" fill="none" stroke="#ffffff" stroke-width="1" opacity="0.5"/></g></g><g transform="translate(0,360)" font-family="Helvetica, Arial, sans-serif" text-anchor="middle"><g transform="translate(220,0)"><text x="0" y="0" font-size="22" font-weight="800" fill="#e82127">100%</text><text x="0" y="16" font-size="9" letter-spacing="2" fill="#ffffff" opacity="0.55">OFFLINE</text></g><g transform="translate(330,0)"><text x="0" y="0" font-size="22" font-weight="800" fill="#ffffff">17</text><text x="0" y="16" font-size="9" letter-spacing="2" fill="#ffffff" opacity="0.55">REGIONS</text></g><g transform="translate(430,0)"><text x="0" y="0" font-size="22" font-weight="800" fill="#ffffff">2.4 GB</text><text x="0" y="16" font-size="9" letter-spacing="2" fill="#ffffff" opacity="0.55">MAP SIZE</text></g><g transform="translate(560,0)"><text x="0" y="0" font-size="22" font-weight="800" fill="#ffffff">FREE</text><text x="0" y="16" font-size="9" letter-spacing="2" fill="#ffffff" opacity="0.55">FOR ALL USERS</text></g></g><g font-family="Helvetica, Arial, sans-serif" fill="#ffffff" opacity="0.55" font-size="10" text-anchor="middle"><text x="400" y="425">OPENSTREETMAP KOREA x TRAILTRACE  -  PARTNERSHIP ANNOUNCEMENT  -  10 SEP 2025  -  JINGRUI YUETAO</text></g><g transform="translate(60,30)" font-family="Helvetica, Arial, sans-serif"><rect width="22" height="22" fill="none" stroke="#e82127" stroke-width="1"/><text x="11" y="16" font-size="10" font-weight="800" fill="#e82127" text-anchor="middle">03</text></g><g transform="translate(718,30)" font-family="Helvetica, Arial, sans-serif"><rect width="22" height="22" fill="none" stroke="#e82127" stroke-width="1"/><text x="11" y="16" font-size="9" font-weight="800" fill="#e82127" text-anchor="middle">KR</text></g></svg>