<svg xmlns="http://www.w3.org/2000/svg" viewBox="0 0 800 450" preserveAspectRatio="xMidYMid meet"><defs><linearGradient id="bg4" x1="0%" y1="0%" x2="100%" y2="100%"><stop offset="0%" stop-color="#060606"/><stop offset="60%" stop-color="#180508"/><stop offset="100%" stop-color="#0a0a0a"/></linearGradient><linearGradient id="barGrad" x1="0%" y1="100%" x2="0%" y2="0%"><stop offset="0%" stop-color="#e82127"/><stop offset="100%" stop-color="#ff7a82"/></linearGradient><linearGradient id="barGradDim" x1="0%" y1="100%" x2="0%" y2="0%"><stop offset="0%" stop-color="#ffffff" stop-opacity="0.18"/><stop offset="100%" stop-color="#ffffff" stop-opacity="0.4"/></linearGradient><radialGradient id="boltGlow" cx="50%" cy="50%" r="50%"><stop offset="0%" stop-color="#ff7a82" stop-opacity="0.6"/><stop offset="100%" stop-color="#ff7a82" stop-opacity="0"/></radialGradient></defs><rect width="800" height="450" fill="url(#bg4)"/><g font-family="Helvetica, Arial, sans-serif" text-anchor="middle"><rect x="380" y="38" width="40" height="3" fill="#e82127"/><text x="400" y="65" font-size="11" font-weight="700" letter-spacing="4" fill="#e82127">SPEAKING - DROIDCON LONDON</text><text x="400" y="140" font-size="56" font-weight="900" fill="#ffffff" letter-spacing="-2">200 ms</text><text x="400" y="166" font-size="12" font-weight="700" letter-spacing="3" fill="#e82127">ANDROID COLD-START TIME - MEASURED ON PIXEL 8</text><text x="400" y="194" font-size="14" font-weight="300" font-style="italic" fill="#ffffff" opacity="0.75">It is not the framework. It is the build graph.</text></g><g transform="translate(0,230)"><text x="400" y="0" font-family="Helvetica, Arial, sans-serif" font-size="11" font-weight="700" letter-spacing="3" fill="#ffffff" opacity="0.55" text-anchor="middle">BENCHMARK - MILLISECONDS, LOWER IS BETTER</text><g transform="translate(140,15)" font-family="Helvetica, Arial, sans-serif"><g transform="translate(0,0)"><text x="0" y="14" font-size="11" fill="#ffffff" opacity="0.6">Industry avg.</text><rect x="120" y="2" width="380" height="14" fill="url(#barGradDim)"/><text x="508" y="14" font-size="11" fill="#ffffff" opacity="0.6">~1200</text></g><g transform="translate(0,28)"><text x="0" y="14" font-size="11" fill="#ffffff">Jingrui - v3</text><rect x="120" y="2" width="63" height="14" fill="url(#barGrad)"/><text x="190" y="14" font-size="11" fill="#e82127" font-weight="700">200</text><text x="220" y="14" font-size="9" fill="#ffffff" opacity="0.5">(-83% vs avg)</text></g><g transform="translate(0,56)"><text x="0" y="14" font-size="11" fill="#ffffff" opacity="0.6">Cold-start p99</text><rect x="120" y="2" width="85" height="14" fill="url(#barGrad)"/><text x="212" y="14" font-size="11" fill="#e82127" font-weight="700">270</text></g><g transform="translate(0,84)"><text x="0" y="14" font-size="11" fill="#ffffff" opacity="0.6">Warm-start</text><rect x="120" y="2" width="32" height="14" fill="url(#barGrad)"/><text x="160" y="14" font-size="11" fill="#e82127" font-weight="700">80</text></g></g></g><g transform="translate(0,355)" font-family="Helvetica, Arial, sans-serif" text-anchor="middle"><g transform="translate(200,0)"><rect width="120" height="30" rx="4" fill="#ffffff" opacity="0.04" stroke="#ffffff" stroke-opacity="0.2"/><text x="60" y="20" font-family="monospace" font-size="10" fill="#e82127" font-weight="700">tasks.preBuild</text></g><g transform="translate(340,0)"><rect width="120" height="30" rx="4" fill="#ffffff" opacity="0.04" stroke="#ffffff" stroke-opacity="0.2"/><text x="60" y="20" font-family="monospace" font-size="10" fill="#ffffff" opacity="0.8">cacheWarm()</text></g><g transform="translate(480,0)"><rect width="120" height="30" rx="4" fill="#ffffff" opacity="0.04" stroke="#ffffff" stroke-opacity="0.2"/><text x="60" y="20" font-family="monospace" font-size="10" fill="#ffffff" opacity="0.8">kapt = off</text></g></g><g font-family="Helvetica, Arial, sans-serif" fill="#ffffff" opacity="0.55" font-size="10" text-anchor="middle"><text x="400" y="425">DROIDCON LONDON  -  ENGINEERING TALK  -  22 AUG 2025  -  JINGRUI YUETAO</text></g><g transform="translate(60,30)" font-family="Helvetica, Arial, sans-serif"><rect width="22" height="22" fill="none" stroke="#e82127" stroke-width="1"/><text x="11" y="16" font-size="10" font-weight="800" fill="#e82127" text-anchor="middle">04</text></g><g transform="translate(700,75)"><circle cx="30" cy="30" r="40" fill="url(#boltGlow)"/><path d="M 38 5 L 12 40 L 28 40 L 22 60 L 48 22 L 32 22 Z" fill="#e82127" stroke="#ffffff" stroke-width="0.8" stroke-linejoin="round"/></g></svg>