<svg xmlns="http://www.w3.org/2000/svg" viewBox="0 0 800 600" preserveAspectRatio="xMidYMid slice"><defs><linearGradient id="sg" x1="0%" y1="0%" x2="100%" y2="100%"><stop offset="0%" stop-color="#0e0e0e"/><stop offset="100%" stop-color="#1a0608"/></linearGradient><radialGradient id="sg2" cx="50%" cy="50%" r="50%"><stop offset="0%" stop-color="#e82127" stop-opacity=".3"/><stop offset="100%" stop-color="#000" stop-opacity="0"/></radialGradient></defs><rect width="800" height="600" fill="url(#sg)"/><rect width="800" height="600" fill="url(#sg2)"/><g opacity=".4" stroke="#e82127" stroke-width="1.5" fill="none"><rect x="80" y="80" width="640" height="440" rx="8"/><rect x="120" y="120" width="560" height="360" rx="8"/><rect x="160" y="160" width="480" height="280" rx="8"/></g><g opacity=".5"><circle cx="200" cy="200" r="4" fill="#e82127"/><circle cx="400" cy="300" r="4" fill="#e82127"/><circle cx="600" cy="400" r="4" fill="#e82127"/><line x1="200" y1="200" x2="400" y2="300" stroke="#e82127" stroke-width="1" stroke-dasharray="3 4"/><line x1="400" y1="300" x2="600" y2="400" stroke="#e82127" stroke-width="1" stroke-dasharray="3 4"/></g><g opacity=".3" fill="#fff"><rect x="180" y="180" width="40" height="6" rx="3"/><rect x="180" y="194" width="60" height="6" rx="3"/><rect x="380" y="280" width="40" height="6" rx="3"/><rect x="380" y="294" width="60" height="6" rx="3"/><rect x="580" y="380" width="40" height="6" rx="3"/><rect x="580" y="394" width="60" height="6" rx="3"/></g></svg>
